<svg width="116" height="151" viewBox="0 0 116 151" fill="none" xmlns="http://www.w3.org/2000/svg">
<path d="M0 22C0 9.84975 9.84974 0 22 0H93.1695C105.32 0 115.169 9.84973 115.169 22V26.6271C115.169 38.7774 105.32 48.6271 93.1695 48.6271H0V22Z" fill="#158E99"/>
<path d="M0 48.627H93.1695C105.32 48.627 115.169 58.4767 115.169 70.6269V72.6947C115.169 84.845 105.32 94.6947 93.1695 94.6947H0V48.627Z" fill="#4FE2C6"/>
<path d="M51.1864 51.1865V129C51.1864 141.15 41.3367 151 29.1864 151H22C9.84975 151 7.62939e-06 141.15 7.62939e-06 129V51.1865H51.1864Z" fill="#4FE2C6"/>
</svg>
