<svg width="312" height="80" viewBox="0 0 312 80" fill="none" xmlns="http://www.w3.org/2000/svg">
<path d="M0 9.5C0 4.2533 4.2533 0 9.5 0H35.5C40.7467 0 45 4.2533 45 9.5V9.5C45 14.7467 40.7467 19 35.5 19H0V9.5Z" fill="#158E99"/>
<path d="M111 0H134C141.18 0 147 5.8203 147 13V13C147 20.1797 141.18 26 134 26H111V0Z" fill="#158E99"/>
<path d="M111 26H134C142.284 26 149 32.7157 149 41V44C149 52.2843 142.284 59 134 59H111V26Z" fill="#4FE3C1"/>
<path d="M0 19H36C40.9706 19 45 23.0294 45 28V28C45 32.9706 40.9706 37 36 37H0V19Z" fill="#4FE2C6"/>
<path d="M20 20V49.5C20 54.7467 15.7467 59 10.5 59H9.5C4.2533 59 0 54.7467 0 49.5V20H20Z" fill="#4FE2C6"/>
<path d="M72.7346 4.3162C73.4871 2.90266 75.5129 2.90265 76.2654 4.3162L103.679 55.8102C104.388 57.1423 103.423 58.75 101.913 58.75H47.0866C45.5774 58.75 44.612 57.1423 45.3212 55.8102L72.7346 4.3162Z" fill="#4FE3C1"/>
<path d="M72.7215 3.44044C73.4673 1.99765 75.5309 1.99853 76.2755 3.44196L91.5663 33.0831C92.253 34.4142 91.2866 36 89.7888 36H59.1753C57.6768 36 56.7105 34.4128 57.3987 33.0816L72.7215 3.44044Z" fill="#1A8C97"/>
<path d="M58 32H91L93.1472 36H55.8392L58 32Z" fill="#1A8C97"/>
<path d="M274 1H297C304.18 1 310 6.8203 310 14V14C310 21.1797 304.18 27 297 27H274V1Z" fill="#158E99"/>
<path d="M274 27H297C305.284 27 312 33.7157 312 42V45C312 53.2843 305.284 60 297 60H274V27Z" fill="#4FE3C1"/>
<path d="M236.735 6.3162C237.487 4.90266 239.513 4.90265 240.265 6.3162L267.679 57.8102C268.388 59.1423 267.423 60.75 265.913 60.75H211.087C209.577 60.75 208.612 59.1423 209.321 57.8102L236.735 6.3162Z" fill="#4FE3C1"/>
<path d="M236.721 5.44044C237.467 3.99765 239.531 3.99853 240.276 5.44196L255.566 35.0831C256.253 36.4142 255.287 38 253.789 38H223.175C221.677 38 220.711 36.4128 221.399 35.0816L236.721 5.44044Z" fill="#1A8C97"/>
<rect x="203" y="41" width="19" height="38" rx="9.5" transform="rotate(90 203 41)" fill="#1B8E95"/>
<rect x="163" y="1" width="20" height="59" rx="10" fill="#51E2C3"/>
</svg>
